PathFileType	4	(X/Y/Z)	C:\Git\research_data\Projects\torsion_deformities_healthy_kinematics\simulations\TD01\pre\dynamic_14_l\marker_experimental.trc
DataRate	CameraRate	NumFrames	NumMarkers	Units	OrigDataRate	OrigDataStartFrame	OrigNumFrames
200	200	6	30	mm	200	1	618
Frame#	Time	C7			T10			CLAV			STRN			RBAK			LASI			RASI			SACR			RT1			RT2			RT3			RKNE			RS1			RS2			RS3			RANK			RHEE			RTOE			LT1			LT2			LT3			LKNE			LS1			LS2			LS3			LANK			LHEE			LTOE			RHJC			LHJC		
		X1	Y1	Z1	X2	Y2	Z2	X3	Y3	Z3	X4	Y4	Z4	X5	Y5	Z5	X6	Y6	Z6	X7	Y7	Z7	X8	Y8	Z8	X9	Y9	Z9	X10	Y10	Z10	X11	Y11	Z11	X12	Y12	Z12	X13	Y13	Z13	X14	Y14	Z14	X15	Y15	Z15	X16	Y16	Z16	X17	Y17	Z17	X18	Y18	Z18	X19	Y19	Z19	X20	Y20	Z20	X21	Y21	Z21	X22	Y22	Z22	X23	Y23	Z23	X24	Y24	Z24	X25	Y25	Z25	X26	Y26	Z26	X27	Y27	Z27	X28	Y28	Z28	X29	Y29	Z29	X30	Y30	Z30	

1	0.000000	-2023.274048	1224.383911	-242.450378	-2072.434814	1042.013184	-238.112305	-1905.423828	1170.242676	-249.339890	-1865.534302	1035.201172	-260.322052	-2055.529785	1151.015137	-150.964233	-1962.854736	840.200806	-351.549316	-1932.455322	835.681152	-149.801498	-2104.284912	881.840637	-220.651154	-1914.674316	647.654724	-104.258217	-1931.343506	583.676819	-97.422867	-1882.475098	590.762451	-117.768959	-1852.545166	471.528625	-128.321198	-1852.147583	334.721527	-111.774666	-1838.152100	272.198059	-126.652588	-1798.298218	296.601471	-111.265564	-1721.289917	106.063713	-147.768021	-1744.729126	79.369606	-209.725388	-1589.571533	152.082779	-137.331406	-2062.063477	654.953186	-381.961670	-2103.862061	604.059937	-370.790009	-2054.455811	591.249878	-364.948151	-2127.015381	453.575500	-341.029816	-2225.011475	343.562439	-359.138824	-2259.813721	288.512299	-346.943451	-2210.497559	280.469055	-345.432678	-2327.180908	122.256561	-315.443115	-2367.969727	128.724518	-272.956207	-2196.324707	63.536140	-284.788330	-2002.989128	779.993015	-168.129824	-2025.227583	783.299333	-315.716869	
2	0.005000	-2015.586792	1223.335449	-241.152435	-2064.384766	1040.802002	-237.150711	-1897.544434	1169.407104	-248.100739	-1857.337769	1034.459839	-259.052277	-2047.706787	1149.766235	-149.737656	-1954.346313	838.751404	-351.070374	-1923.948975	834.291687	-149.334549	-2095.864014	880.521179	-220.215179	-1905.612549	647.784180	-104.564461	-1921.061279	583.863037	-97.143669	-1872.644653	591.815186	-118.149902	-1843.328003	470.337708	-128.877594	-1844.709595	332.692261	-112.665596	-1832.091187	269.955261	-127.975273	-1791.343384	293.750275	-112.648849	-1716.957397	102.573570	-149.483337	-1741.450684	76.447510	-211.090790	-1584.615845	146.741623	-140.875397	-2055.145508	654.147156	-381.673340	-2097.119629	603.313904	-370.654907	-2047.735718	590.291992	-364.763367	-2121.361572	452.799225	-341.126434	-2220.930176	344.013519	-358.996216	-2256.536377	289.450012	-346.931274	-2207.432861	280.666901	-345.462799	-2326.798828	124.018356	-315.791718	-2367.507080	131.251694	-273.262299	-2195.917725	63.695660	-284.939117	-1994.526453	778.634902	-167.636721	-2016.763533	781.897394	-315.215947	
3	0.010000	-2007.932983	1222.379639	-239.879913	-2056.383057	1039.693359	-236.214371	-1889.708130	1168.660278	-246.880676	-1849.183960	1033.808716	-257.791534	-2039.916382	1148.619751	-148.525513	-1945.851440	837.386841	-350.547485	-1915.515991	833.067871	-148.869675	-2087.511230	879.308838	-219.816101	-1896.629517	647.857117	-104.791962	-1911.017456	583.959656	-96.964828	-1862.966431	592.668213	-118.466385	-1834.116821	469.359131	-129.412186	-1837.126221	330.990692	-113.434898	-1825.824829	268.019806	-129.098999	-1784.245605	291.261200	-113.977211	-1712.698364	99.439926	-151.009171	-1738.315918	73.982109	-212.249771	-1579.724487	141.326492	-144.281448	-2048.003662	653.329102	-381.363159	-2090.133545	602.541382	-370.512604	-2040.767822	589.341431	-364.592590	-2115.281738	451.941315	-341.307098	-2216.507080	344.500854	-358.923462	-2252.949707	290.473816	-346.971283	-2204.056641	280.908630	-345.571960	-2326.101074	125.956413	-316.156647	-2366.638428	134.005768	-273.568420	-2195.511475	63.803871	-285.066986	-1986.117209	777.438241	-167.134357	-2008.309755	780.597876	-314.676066	
4	0.015000	-2000.312866	1221.516235	-238.632828	-2048.429688	1038.687378	-235.303314	-1881.914795	1168.002441	-245.679703	-1841.072876	1033.247925	-256.539825	-2032.158569	1147.575684	-147.327835	-1937.370239	836.107056	-349.980621	-1907.156494	832.009827	-148.406738	-2079.226807	878.203491	-219.453857	-1887.725830	647.874695	-104.940704	-1901.213623	583.968140	-96.885384	-1853.442505	593.322510	-118.717705	-1824.911865	468.593048	-129.924835	-1829.397461	329.617737	-114.082199	-1819.352539	266.393585	-130.022369	-1777.005005	289.135071	-115.249802	-1708.512817	96.663216	-152.345428	-1735.323853	71.972687	-213.202377	-1574.898193	135.841263	-147.548355	-2040.637939	652.498962	-381.031189	-2082.903320	601.742188	-370.363037	-2033.551758	588.398254	-364.435669	-2108.775879	451.001862	-341.571686	-2211.741211	345.024231	-358.920776	-2249.052734	291.583435	-347.063904	-2200.367676	281.194092	-345.760345	-2325.086182	128.070709	-316.538147	-2365.362305	136.986633	-273.875061	-2195.106934	63.860405	-285.171722	-1977.761602	776.403052	-166.622630	-1999.866443	779.400647	-314.097182	
5	0.020000	-1992.726196	1220.745239	-237.411194	-2040.525024	1037.783813	-234.417511	-1874.164551	1167.433350	-244.497864	-1833.004639	1032.777344	-255.297226	-2024.433350	1146.634033	-146.144638	-1928.902954	834.912109	-349.369934	-1898.870483	831.117615	-147.945404	-2071.010742	877.205017	-219.128372	-1878.902954	647.840576	-105.010727	-1891.653442	583.892700	-96.902580	-1844.077026	593.781494	-118.902100	-1815.714233	468.039703	-130.415176	-1821.523804	328.575378	-114.606438	-1812.673218	265.081451	-130.741470	-1769.622925	287.373566	-116.464134	-1704.401123	94.244148	-153.492111	-1732.472534	70.416451	-213.948883	-1570.139160	130.296616	-150.673004	-2033.048218	651.656555	-380.677307	-2075.427490	600.915649	-370.206177	-2026.085815	587.462402	-364.292084	-2101.843262	449.980865	-341.919983	-2206.629639	345.583038	-358.988892	-2244.841797	292.778076	-347.210327	-2196.362793	281.522797	-346.028564	-2323.750000	130.361084	-316.937195	-2363.674316	140.194077	-274.183563	-2194.705078	63.864311	-285.252747	-1969.459804	775.529203	-166.101281	-1991.433926	778.305555	-313.479335	
6	0.025000	-1985.173340	1220.066772	-236.215057	-2032.668823	1036.982666	-233.556976	-1866.457520	1166.953003	-243.335205	-1824.979370	1032.396729	-254.063889	-2016.740967	1145.794556	-144.976013	-1920.450562	833.802002	-348.715607	-1890.658447	830.391479	-147.484894	-2062.863281	876.313232	-218.839417	-1870.164062	647.762695	-105.002266	-1882.342896	583.742615	-97.010681	-1834.878174	594.053528	-119.016266	-1806.525635	467.699188	-130.882568	-1813.506592	327.866669	-115.005478	-1805.786133	264.091644	-131.248749	-1762.102539	285.978760	-117.615265	-1700.365601	92.182678	-154.449707	-1729.758667	69.305931	-214.490417	-1565.453491	124.713570	-153.649918	-2025.234253	650.801697	-380.301483	-2067.703857	600.060486	-370.041962	-2018.366943	586.533508	-364.160736	-2094.483887	448.878510	-342.351471	-2201.166748	346.175812	-359.129089	-2240.310059	294.055969	-347.412964	-2192.035645	281.893707	-346.377716	-2322.083740	132.827072	-317.355591	-2361.566162	143.627380	-274.496643	-2194.309082	63.813923	-285.308899	-1961.212501	774.816543	-165.569562	-1983.013213	777.312231	-312.822380	
